<svg xmlns="http://www.w3.org/2000/svg" xmlns:xlink="http://www.w3.org/1999/xlink" viewBox="0 0 282.82 437.47"><defs><style>.cls-1{fill:url(#linear-gradient);}</style><linearGradient id="linear-gradient" y1="218.74" x2="282.82" y2="218.74" gradientUnits="userSpaceOnUse"><stop offset="0" stop-color="#3f51b5"/><stop offset="1" stop-color="#303f9f"/></linearGradient></defs><title>Portfolio</title><g id="Layer_1" data-name="Layer 1"><path className="cls-1" d="M282.82,428.32a9.15,9.15,0,0,1-9.12,9.15H0V24.21c11.34-3.46,25.43-5.58,42.94-5.94C70.15,0,99.37,0,112,0c32.14,0,55.36,10.59,69.05,31.46,17.79,27.15,9.28,45.86-1,56.79l-6.82,6.82-1.68,34.33a27.27,27.27,0,0,1,17.44,28.93l-4.55,36.46a27.41,27.41,0,0,1-19.76,22.93,125.77,125.77,0,0,1-35.29,70l5.94,23.77,69.83,17.44A102.33,102.33,0,0,1,282.82,428.32Z"/></g></svg>