<svg xmlns="http://www.w3.org/2000/svg" viewBox="0 0 57.51 57.51"><defs><style>.cls-1{fill:#563d7c;}.cls-2{fill:#fff;}</style></defs><title>Portfolio</title><g id="Layer_1" data-name="Layer 1"><path className="cls-1" d="M.05,50.11a7.41,7.41,0,0,0,7.42,7.4l42.64,0A7.42,7.42,0,0,0,57.51,50l0-42.64A7.42,7.42,0,0,0,50,0L7.4.05A7.41,7.41,0,0,0,0,7.47Z"/><path className="cls-2" d="M23.85,25.45V17.31H31a11.46,11.46,0,0,1,2,.17,4.72,4.72,0,0,1,1.69.61,3.32,3.32,0,0,1,1.17,1.21,4.08,4.08,0,0,1,.44,2A3.71,3.71,0,0,1,35,24.46a5.52,5.52,0,0,1-3.37,1ZM16.18,11.37l0,34.79,16.86,0a17.82,17.82,0,0,0,4.56-.59,12.24,12.24,0,0,0,3.94-1.8,9,9,0,0,0,2.75-3.15,9.59,9.59,0,0,0,1-4.56,9.74,9.74,0,0,0-1.59-5.57A8.36,8.36,0,0,0,39,27.23a8.65,8.65,0,0,0,3.53-2.88A7.58,7.58,0,0,0,43.67,20a9.3,9.3,0,0,0-.81-4.1,6.65,6.65,0,0,0-2.27-2.65,9.77,9.77,0,0,0-3.51-1.43,21.75,21.75,0,0,0-4.53-.44l-16.37,0Zm7.68,28.84V30.66h8.34a6.47,6.47,0,0,1,4,1.14,4.52,4.52,0,0,1,1.52,3.82,4.94,4.94,0,0,1-.46,2.25A3.79,3.79,0,0,1,36,39.25a5.33,5.33,0,0,1-1.81.73,9.89,9.89,0,0,1-2.14.22Z"/></g></svg>