<svg xmlns="http://www.w3.org/2000/svg" viewBox="0 0 63.4 65.91"><defs><style>.cls-1{fill:#e44f26;}.cls-2{fill:#f1662a;}.cls-3{fill:#ebebeb;}.cls-4{fill:#fff;}</style></defs><title>Portfolio</title><g id="Layer_1" data-name="Layer 1"><polygon className="cls-1" points="5.84 59.36 0 0.07 63.4 0 57.69 59.29 31.74 65.91 5.84 59.36"/><polygon className="cls-2" points="31.77 60.87 52.74 55.52 57.62 4.86 31.7 4.89 31.77 60.87"/><polygon className="cls-3" points="31.73 26.87 21.23 26.89 20.5 19.44 31.72 19.43 31.71 12.16 31.68 12.16 11.81 12.18 12.01 14.13 13.98 34.17 31.74 34.15 31.73 26.87"/><polygon className="cls-3" points="31.75 45.76 31.72 45.77 22.88 43.59 22.3 37.8 18.01 37.8 14.34 37.8 15.46 49.22 31.73 53.34 31.76 53.33 31.75 45.76"/><polygon className="cls-4" points="31.7 26.88 31.71 34.15 41.48 34.13 40.57 43.57 31.72 45.77 31.73 53.33 48 49.18 48.12 47.95 49.96 28.81 50.15 26.85 48.01 26.86 31.7 26.88"/><polygon className="cls-4" points="31.68 12.16 31.69 16.67 31.69 19.41 31.69 19.43 50.84 19.41 50.84 19.41 50.86 19.41 51.02 17.77 51.38 14.09 51.57 12.13 31.68 12.16"/></g></svg>