<svg xmlns="http://www.w3.org/2000/svg" viewBox="0 0 78.01 63.6"><defs><style>.cls-1{fill:#00d8ff;}</style></defs><title>Portfolio</title><g id="Layer_1" data-name="Layer 1"><path className="cls-1" d="M64.13,20.6q-1.21-.37-2.52-.72c.14-.53.27-1.06.39-1.57C63.89,9.85,62.64,3,58.39.81,54.32-1.34,47.67.91,41,6.28c-.64.51-1.29,1.06-1.94,1.63-.43-.38-.86-.74-1.29-1.09C30.67,1.1,23.6-1.31,19.37.94c-4.07,2.17-5.26,8.57-3.54,16.58.16.77.36,1.56.58,2.37-1,.26-2,.54-2.89.83C5.26,23.37,0,27.51,0,31.8s5.67,8.87,14.28,11.55c.68.21,1.38.41,2.11.6-.24.87-.44,1.72-.61,2.56-1.62,7.87-.34,14.12,3.71,16.26,4.2,2.21,11.22-.08,18.06-5.57.54-.43,1.08-.89,1.63-1.37.7.62,1.41,1.21,2.11,1.76,6.63,5.22,13.18,7.32,17.23,5.17s5.54-8.94,3.76-17.11c-.14-.63-.29-1.26-.47-1.91l1.45-.42C72.2,40.59,78,36.2,78,31.71c0-4.3-5.46-8.46-13.88-11.11ZM62.21,40.42l-1.31.38a68.6,68.6,0,0,0-4-9,67.16,67.16,0,0,0,3.78-8.93c.8.21,1.58.43,2.32.67,7.23,2.27,11.63,5.63,11.64,8.22,0,2.77-4.75,6.36-12.47,8.71ZM59,46.24a23.76,23.76,0,0,1,.39,9.44C58.94,58,58,59.5,56.85,60.12c-2.46,1.3-7.72-.39-13.39-4.85-.65-.51-1.31-1.06-2-1.64A71.5,71.5,0,0,0,48,46a84,84,0,0,0,10.57-1.51c.16.59.3,1.17.42,1.73ZM26.63,59.93c-2.4.78-4.32.8-5.47.19-2.47-1.3-3.49-6.31-2.11-13q.24-1.16.57-2.37a86.57,86.57,0,0,0,10.51,1.38,77.47,77.47,0,0,0,6.71,7.57c-.5.44-1,.86-1.49,1.26a28.7,28.7,0,0,1-8.72,5ZM15.35,40.46A29.11,29.11,0,0,1,6.25,36c-1.94-1.51-2.92-3-2.92-4.24,0-2.61,4.23-5.93,11.29-8.19.86-.28,1.75-.54,2.68-.78a69.19,69.19,0,0,0,3.82,9A70.7,70.7,0,0,0,17.28,41c-.67-.17-1.31-.36-1.93-.55ZM19.1,16.93c-1.48-6.86-.51-12,1.94-13.34,2.61-1.39,8.38.57,14.47,5.52.39.31.78.64,1.17,1A76.6,76.6,0,0,0,30,17.64a87.58,87.58,0,0,0-10.4,1.49c-.21-.75-.39-1.48-.54-2.2ZM52.75,24.5q-1.16-1.83-2.37-3.57c2.49.29,4.87.67,7.11,1.13A60.25,60.25,0,0,1,55,28.22q-1.06-1.84-2.25-3.72ZM39,12.27a66,66,0,0,1,4.59,5.08c-1.52-.07-3.07-.1-4.62-.1s-3.08,0-4.6.11c1.52-1.84,3.07-3.54,4.63-5.09ZM25.22,24.56c-.77,1.22-1.5,2.46-2.19,3.7a61.58,61.58,0,0,1-2.49-6.19c2.22-.45,4.6-.83,7.07-1.12-.82,1.18-1.62,2.38-2.39,3.61ZM27.71,42.8c-2.56-.26-5-.61-7.19-1A62.29,62.29,0,0,1,23,35.44c.7,1.23,1.44,2.47,2.21,3.69h0c.79,1.25,1.62,2.48,2.46,3.67Zm11.45,8.65c-1.58-1.56-3.16-3.28-4.7-5.14,1.49,0,3,.08,4.56.08s3.16,0,4.71-.1a68.23,68.23,0,0,1-4.57,5.16ZM55,35.29a60.2,60.2,0,0,1,2.63,6.29c-2.26.47-4.7.85-7.28,1.14q1.22-1.77,2.4-3.64c.79-1.26,1.54-2.53,2.25-3.79ZM49.9,37.56c-1.22,1.94-2.47,3.79-3.74,5.53-2.31.16-4.71.24-7.14.24s-4.79-.06-7.07-.19c-1.32-1.77-2.6-3.62-3.81-5.54h0c-1.22-1.91-2.33-3.84-3.34-5.75,1-1.93,2.11-3.86,3.31-5.77h0c1.2-1.92,2.47-3.76,3.78-5.52,2.32-.17,4.7-.25,7.1-.26h0c2.42,0,4.8.08,7.12.24,1.29,1.75,2.55,3.58,3.76,5.5s2.35,3.85,3.37,5.73c-1,1.91-2.13,3.85-3.34,5.79ZM56.73,3.45c2.62,1.38,3.64,7,2,14.25-.1.46-.22.94-.34,1.42A86.49,86.49,0,0,0,48,17.62a73.22,73.22,0,0,0-6.6-7.53c.6-.53,1.2-1,1.79-1.51C48.9,4,54.28,2.16,56.73,3.45ZM39,25.37c3.84,0,7,2.85,7,6.38s-3.11,6.38-7,6.39-7-2.85-7-6.38,3.11-6.38,7-6.39Z"/></g></svg>