<svg xmlns="http://www.w3.org/2000/svg" xmlns:xlink="http://www.w3.org/1999/xlink" viewBox="0 0 64.52 38.73"><defs><style>.cls-1{fill:url(#linear-gradient);}</style><linearGradient id="linear-gradient" x1="-18.06" y1="38.63" x2="76.16" y2="6.03" gradientTransform="translate(1.98 -2.52) rotate(-0.07)" gradientUnits="userSpaceOnUse"><stop offset="0" stop-color="#2298bd"/><stop offset="1" stop-color="#0ed7b5"/></linearGradient></defs><title>Portfolio</title><g id="Layer_1" data-name="Layer 1"><path className="cls-1" d="M32.24,0Q19.32,0,16.11,12.93,21,6.46,27.4,8.07c2.46.61,4.22,2.39,6.16,4.36,3.17,3.21,6.84,6.92,14.83,6.91q12.92,0,16.13-12.92-4.84,6.45-11.29,4.85c-2.46-.61-4.22-2.39-6.16-4.36C43.9,3.7,40.23,0,32.24,0ZM16.12,19.38Q3.22,19.4,0,32.31q4.83-6.47,11.29-4.85c2.46.61,4.21,2.39,6.16,4.36,3.17,3.2,6.83,6.92,14.83,6.91q12.92,0,16.12-12.93-4.83,6.47-11.29,4.85C34.66,30,32.9,28.26,31,26.29,27.79,23.09,24.12,19.37,16.12,19.38Z"/></g></svg>