<svg xmlns="http://www.w3.org/2000/svg" xmlns:xlink="http://www.w3.org/1999/xlink" viewBox="0 0 395 395" fill="#5b21b6"><defs><linearGradient id="linear-gradient" y1="197.5" x2="395" y2="197.5" gradientUnits="userSpaceOnUse"><stop offset="0" stop-color="#3f51b5"/><stop offset="1" stop-color="#303f9f"/></linearGradient></defs><title>Portfolio</title><g id="Layer_1" data-name="Layer 1"><path className="cls-1" d="M324.94,297l-63.06-15.75-5.36-21.46a113.49,113.49,0,0,0,31.86-63.2,24.72,24.72,0,0,0,17.84-20.71L310.34,143a24.64,24.64,0,0,0-15.75-26.12l1.51-31,6.16-6.16c9.26-9.87,16.95-26.78.89-51.28C290.79,9.56,269.82,0,240.8,0,229.36,0,203,0,178.41,16.49c-70.13,1.47-79.66,34-79.66,65.8,0,7.39,1.79,24,3,34.07a24.51,24.51,0,0,0-11.06,7.19,24.76,24.76,0,0,0-6,19.42l4.11,32.92a24.76,24.76,0,0,0,19.79,21.17,114.29,114.29,0,0,0,30.26,61.25l-5.73,22.95L70.06,297A92.35,92.35,0,0,0,0,386.77,8.24,8.24,0,0,0,8.23,395H386.77a8.26,8.26,0,0,0,8.23-8.26A92.38,92.38,0,0,0,324.94,297Z"/></g></svg>