<svg xmlns="http://www.w3.org/2000/svg" viewBox="0 0 55.78 63.79"><defs><style>.cls-1{fill:#ff4081;fill-rule:evenodd;}</style></defs><title>Portfolio</title><g id="Layer_1" data-name="Layer 1"><path className="cls-1" d="M52,47.31c-1.71-2.16-4.49-5.28-6.87-5.58-1.45-.18-3.12,1-4.76,2.15-.32.17-2.79,1.64-3.09,1.73-1.59.45-5,.58-7-1.28a94,94,0,0,1-7.59-8.19,89.54,89.54,0,0,1-6.21-9.25c-1.35-2.41-.38-5.59.46-7,.15-.26,2-2.15,2.4-2.59l.06.07c1.53-1.28,3.12-2.58,3.3-4,.3-2.34-2.1-5.76-3.81-7.92s-4.37-5.95-8-5.42A10,10,0,0,0,7.23,1.41l0,0L7,1.52l-.1.06h0c-.66.51-2.56,1.93-2.77,2.12C1.79,5.8-1.74,10.71,1,19.54c2,6.57,6.34,14.28,12.23,22.08l0,0c.29.38.58.72.88,1.08s.56.74.85,1.11l0,0c6.24,7.53,12.79,13.54,18.76,17.08,8.05,4.78,13.77,2.63,16.41.92.25-.17,2.14-1.64,2.78-2.12l0,0a.27.27,0,0,1,.07-.08l.17-.14,0,0a9.85,9.85,0,0,0,2.28-3.2c1.4-3.31-1.68-6.77-3.4-8.94Z"/></g></svg>