<svg xmlns="http://www.w3.org/2000/svg" viewBox="0 0 62.91 65.42"><defs><style>.cls-1{fill:#1572b6;}.cls-2{fill:#33a9dc;}.cls-3{fill:#fff;}.cls-4{fill:#ebebeb;}</style></defs><title>Portfolio</title><g id="Layer_1" data-name="Layer 1"><polygon className="cls-1" points="5.79 58.91 0 0.07 62.91 0 57.25 58.84 31.5 65.42 5.79 58.91"/><polygon className="cls-2" points="31.53 60.41 52.34 55.1 57.18 4.82 31.46 4.85 31.53 60.41"/><polygon className="cls-3" points="31.49 26.17 41.91 26.16 42.62 18.76 31.48 18.78 31.47 11.56 31.5 11.56 51.22 11.54 51.03 13.47 49.12 33.37 31.5 33.38 31.49 26.17"/><polygon className="cls-4" points="31.56 44.91 31.52 44.92 22.75 42.76 22.18 37 17.92 37.01 14.27 37.01 15.39 48.34 31.53 52.43 31.57 52.42 31.56 44.91"/><polygon className="cls-3" points="41.25 33.07 40.31 42.73 31.53 44.91 31.54 52.42 47.68 48.3 47.8 47.09 49.15 33.06 41.25 33.07"/><polygon className="cls-4" points="31.5 11.56 31.5 16.04 31.51 18.76 31.51 18.78 12.51 18.8 12.51 18.8 12.48 18.8 12.32 17.18 11.96 13.52 11.77 11.58 31.5 11.56"/><polygon className="cls-4" points="31.49 26.17 31.49 30.65 31.5 33.37 31.5 33.38 22.86 33.4 22.86 33.4 22.83 33.4 22.67 31.77 22.31 28.11 22.12 26.18 31.49 26.17"/></g></svg>