<svg xmlns="http://www.w3.org/2000/svg" viewBox="0 0 60.26 58.78"><defs><style>.cls-1{fill:#fff;}</style></defs><title>Portfolio</title><g id="Layer_1" data-name="Layer 1"><path className="cls-1" d="M30.13,0A30.14,30.14,0,0,0,20.6,58.73c1.51.28,2.06-.65,2.06-1.46s0-2.6,0-5.12c-8.39,1.82-10.16-4-10.16-4-1.37-3.47-3.35-4.4-3.35-4.4-2.73-1.86.22-1.83.22-1.83A6.31,6.31,0,0,1,14,45c2.69,4.61,7.05,3.28,8.78,2.5a6.36,6.36,0,0,1,1.9-4c-6.69-.75-13.72-3.34-13.72-14.89A11.63,11.63,0,0,1,14,20.47a10.79,10.79,0,0,1,.27-8s2.52-.8,8.29,3.09a28.57,28.57,0,0,1,15.06,0c5.73-3.89,8.25-3.09,8.25-3.09a11.11,11.11,0,0,1,.31,8,11.73,11.73,0,0,1,3.08,8.09c0,11.57-7,14.13-13.74,14.86,1,.91,2,2.76,2,5.58,0,4,0,7.27,0,8.25,0,.79.52,1.73,2.07,1.43A30.1,30.1,0,0,0,30.13,0Z"/></g></svg>