<svg xmlns="http://www.w3.org/2000/svg" viewBox="0 0 61.29 59.78"><defs><style>.cls-1{fill:#ff4081;}</style></defs><title>Portfolio</title><g id="Layer_1" data-name="Layer 1"><path className="cls-1" d="M30.65,0A30.65,30.65,0,0,0,21,59.73C22.49,60,23,59.07,23,58.25S23,55.6,23,53c-8.53,1.85-10.32-4.12-10.32-4.12-1.4-3.53-3.41-4.48-3.41-4.48-2.78-1.89.22-1.85.22-1.85,3.07.21,4.69,3.15,4.69,3.15,2.73,4.69,7.17,3.33,8.92,2.54a6.52,6.52,0,0,1,1.94-4.09c-6.8-.76-14-3.4-14-15.14a11.85,11.85,0,0,1,3.15-8.23,11,11,0,0,1,.27-8.11s2.57-.82,8.43,3.14a28.73,28.73,0,0,1,15.32,0c5.83-4,8.4-3.14,8.4-3.14a11.26,11.26,0,0,1,.3,8.11,11.89,11.89,0,0,1,3.14,8.23c0,11.77-7.17,14.36-14,15.11,1.07.92,2.06,2.81,2.06,5.67,0,4.1,0,7.4,0,8.4,0,.8.53,1.75,2.11,1.45A30.61,30.61,0,0,0,30.64,0Z"/></g></svg>