<svg xmlns="http://www.w3.org/2000/svg" viewBox="0 0 67.9 51.28"><defs><style>.cls-1{fill:#ff4081;}</style></defs><title>Portfolio</title><g id="Layer_1" data-name="Layer 1"><path className="cls-1" d="M8.26,49.89H9.7V13.24L33.93,32.76,58.17,13.24V49.89h1.48a6.9,6.9,0,0,0,6.83-6.16V8.26a6.89,6.89,0,0,0-6.87-6.87L33.93,22.14,8.26,1.39A6.89,6.89,0,0,0,1.39,8.26V43A6.89,6.89,0,0,0,8.26,49.89Z"/><path className="cls-1" d="M59.65,0H8.26A8.26,8.26,0,0,0,0,8.26V43a8.27,8.27,0,0,0,8.26,8.26H59.65A8.27,8.27,0,0,0,67.9,43V8.26A8.26,8.26,0,0,0,59.65,0Zm-4,2.77L33.93,20.36,12.18,2.77ZM56.78,48.5H11.09V16.14l22,17.7a1.38,1.38,0,0,0,1.74,0l22-17.7V48.5ZM65.13,43a5.49,5.49,0,0,1-5.48,5.48h-.1V13.24a1.38,1.38,0,0,0-2.25-1.08L33.93,31,10.57,12.16a1.39,1.39,0,0,0-2.26,1.08V48.5H8.26A5.49,5.49,0,0,1,2.77,43V8.26a5.5,5.5,0,0,1,5-5.47L33.06,23.22a1.42,1.42,0,0,0,.87.31,1.4,1.4,0,0,0,.87-.31L60.08,2.79a5.49,5.49,0,0,1,5,5.47Z"/><path className="cls-1" d="M52.85,26.58a1.35,1.35,0,0,0,.87-.31l.49-.39a1.39,1.39,0,1,0-1.75-2.15l-.48.39a1.38,1.38,0,0,0-.2,1.95A1.36,1.36,0,0,0,52.85,26.58Z"/><path className="cls-1" d="M39.46,37.32a1.35,1.35,0,0,0,.87-.31l9.91-7.92a1.38,1.38,0,0,0-1.74-2.15l-9.91,7.91a1.38,1.38,0,0,0-.21,1.95A1.4,1.4,0,0,0,39.46,37.32Z"/></g></svg>