<svg xmlns="http://www.w3.org/2000/svg" viewBox="0 0 60.36 60.36"><defs><style>.cls-1{fill:#ff4081;}</style></defs><title>Portfolio</title><g id="Layer_1" data-name="Layer 1"><path className="cls-1" d="M43.38,0H17A16.9,16.9,0,0,0,0,17v26.4a16.91,16.91,0,0,0,17,17h26.4a16.91,16.91,0,0,0,17-17V17A16.91,16.91,0,0,0,43.38,0ZM22.63,47.15A1.78,1.78,0,0,1,20.75,49H13.2a1.78,1.78,0,0,1-1.88-1.89V24.52a1.78,1.78,0,0,1,1.88-1.89h7.55a1.78,1.78,0,0,1,1.88,1.89ZM17,20.75a5.56,5.56,0,0,1-5.66-5.66A5.56,5.56,0,0,1,17,9.43a5.55,5.55,0,0,1,5.65,5.66A5.55,5.55,0,0,1,17,20.75ZM49,47.15A1.78,1.78,0,0,1,47.15,49H41.5a1.78,1.78,0,0,1-1.89-1.89V34.89a2.83,2.83,0,0,0-5.66,0V47.15A1.78,1.78,0,0,1,32.07,49H26.41a1.78,1.78,0,0,1-1.89-1.89V24.52a1.79,1.79,0,0,1,1.89-1.89H34a1.7,1.7,0,0,1,1.32.57,10.64,10.64,0,0,1,3.4-.57A10.47,10.47,0,0,1,49,33Z"/></g></svg>