<svg xmlns="http://www.w3.org/2000/svg" viewBox="0 0 59.35 59.35"><defs><style>.cls-1{fill:#fff;}</style></defs><title>Portfolio</title><g id="Layer_1" data-name="Layer 1"><path className="cls-1" d="M42.66,0h-26A16.62,16.62,0,0,0,0,16.69v26A16.62,16.62,0,0,0,16.69,59.35h26A16.62,16.62,0,0,0,59.35,42.66v-26A16.62,16.62,0,0,0,42.66,0ZM22.25,46.36a1.75,1.75,0,0,1-1.85,1.86H13a1.75,1.75,0,0,1-1.85-1.86V24.11A1.76,1.76,0,0,1,13,22.25H20.4a1.76,1.76,0,0,1,1.85,1.86Zm-5.56-26a5.46,5.46,0,0,1-5.56-5.56,5.46,5.46,0,0,1,5.56-5.57,5.46,5.46,0,0,1,5.56,5.57A5.46,5.46,0,0,1,16.69,20.4Zm31.53,26a1.75,1.75,0,0,1-1.86,1.86H40.8A1.75,1.75,0,0,1,39,46.36v-12a2.79,2.79,0,0,0-5.57,0v12a1.75,1.75,0,0,1-1.85,1.86H26a1.75,1.75,0,0,1-1.85-1.86V24.11A1.76,1.76,0,0,1,26,22.25h7.42a1.69,1.69,0,0,1,1.3.56A10.54,10.54,0,0,1,38,22.25a10.3,10.3,0,0,1,10.2,10.21Z"/></g></svg>