<svg xmlns="http://www.w3.org/2000/svg" viewBox="0 0 70.58 66.98"><defs><style>.cls-1{fill:#764abc;}</style></defs><title>Portfolio</title><g id="Layer_1" data-name="Layer 1"><path className="cls-1" d="M48.9,46.78a5,5,0,0,0-.55-10.06h-.18a5,5,0,0,0-4.84,5.21,5.17,5.17,0,0,0,1.44,3.33c-3.05,6-7.72,10.42-14.72,14.11a24.29,24.29,0,0,1-14.63,2.81,12.52,12.52,0,0,1-9.17-5.29A13.19,13.19,0,0,1,5.52,43a21.16,21.16,0,0,1,6.09-7.2c-.36-1.16-.9-3.14-1.17-4.58-13,9.45-11.65,22.2-7.69,28.22,3,4.48,9,7.26,15.64,7.25A22,22,0,0,0,23.77,66,34.48,34.48,0,0,0,48.9,46.78ZM64.69,35.62c-6.83-8-16.9-12.37-28.39-12.36H34.86a5,5,0,0,0-4.4-2.69h-.18a5,5,0,0,0,.19,10.06h.18a5.07,5.07,0,0,0,4.4-3.06h1.61A34.18,34.18,0,0,1,55.8,33.39a24.05,24.05,0,0,1,9.53,11.48,12.47,12.47,0,0,1-.16,10.6,13.2,13.2,0,0,1-12.3,7.38A22.93,22.93,0,0,1,44.07,61c-1,.9-2.78,2.34-4,3.24A27.66,27.66,0,0,0,51.62,67c8.62,0,15-4.77,17.41-9.54C71.63,52.23,71.44,43.25,64.69,35.62ZM19.08,48.34a5,5,0,0,0,5,4.84h.18a5,5,0,0,0-.19-10.06h-.18a1.54,1.54,0,0,0-.63.1,32.86,32.86,0,0,1-4.69-19.94A24.08,24.08,0,0,1,23.89,9.35c2.6-3.32,7.63-4.95,11-5C44.45,4.12,48.5,16,48.78,20.73c1.17.27,3.14.9,4.49,1.34C52.18,7.52,43.19,0,34.56,0,26.48,0,19,5.86,16.08,14.48,12,26,14.67,37,19.71,45.73A4,4,0,0,0,19.08,48.34Z"/></g></svg>