<svg xmlns="http://www.w3.org/2000/svg" viewBox="0 0 68.7 51.53"><defs><style>.cls-1{fill:#cd6799;}</style></defs><title>Portfolio</title><g id="Layer_1" data-name="Layer 1"><path className="cls-1" d="M59.15,29.57A14.33,14.33,0,0,0,52.93,31a12.91,12.91,0,0,1-1.4-3.22,8.51,8.51,0,0,1-.13-2.71,25.66,25.66,0,0,1,.81-2.92c0-.13-.15-.72-1.53-.73s-2.57.27-2.71.63a16.31,16.31,0,0,0-.57,2.05c-.24,1.25-2.75,5.74-4.19,8.08a7.76,7.76,0,0,1-1.09-5.06,26,26,0,0,1,.81-2.93c0-.12-.15-.71-1.53-.72s-2.57.26-2.71.63-.28,1.21-.57,2-3.63,8.31-4.51,10.24c-.45,1-.83,1.79-1.11,2.33h0a.66.66,0,0,1,0,.1l-.37.71h0c-.19.34-.39.66-.49.66a4.11,4.11,0,0,1,0-2.14c.5-2.59,1.69-6.63,1.67-6.77s.23-.78-.78-1.14a1.23,1.23,0,0,0-1.41.24c-.09,0-.15.21-.15.21s1.08-4.54-2.09-4.54c-2,0-4.72,2.18-6.07,4.14l-4.61,2.52c-.74.42-1.51.83-2.22,1.22l-.15-.16c-3.84-4.1-11-7-10.65-12.49.11-2,.79-7.28,13.62-13.69,10.55-5.22,19-3.79,20.42-.59,2.09,4.56-4.49,13.05-15.4,14.29-4.17.47-6.35-1.13-6.9-1.73s-.67-.67-.88-.54-.13.75,0,1.08A6.46,6.46,0,0,0,20,23.21c2,.65,6.89,1,12.79-1.28C39.35,19.36,44.51,12.24,43,6.29s-11.57-8-21.06-4.65C16.29,3.66,10.17,6.83,5.77,11,.55,15.84-.27,20.1.07,21.88,1.29,28.2,10,32.3,13.51,35.35l-.48.26c-1.74.87-8.39,4.35-10,8-1.88,4.17.31,7.15,1.75,7.55,4.48,1.24,9.08-1,11.55-4.69s2.16-8.49,1-10.68l0-.07,1.36-.81c.89-.53,1.77-1,2.52-1.42a16.85,16.85,0,0,0-.88,4.57c-.19,2.36.78,5.42,2,6.62a2.29,2.29,0,0,0,1.66.54c1.48,0,2.14-1.24,2.88-2.69.9-1.78,1.71-3.85,1.71-3.85s-1,5.59,1.75,5.59c1,0,2-1.31,2.47-2h0l.08-.13L33,42v0c.4-.7,1.3-2.29,2.64-4.94,1.73-3.42,3.39-7.68,3.39-7.68a21.28,21.28,0,0,0,.67,2.77,26.7,26.7,0,0,0,1.43,3.21c-.4.56-.65.88-.65.88h0c-.32.43-.67.89-1.06,1.34a39.27,39.27,0,0,0-3.22,4.05,1.1,1.1,0,0,0,.3,1.48,2.78,2.78,0,0,0,1.68.27,7.65,7.65,0,0,0,2.52-.58,8.28,8.28,0,0,0,2.17-1.14A4.86,4.86,0,0,0,45,37.31a8.83,8.83,0,0,0-.79-3c.12-.17.23-.35.36-.52a56.88,56.88,0,0,0,3.76-6.51A21.9,21.9,0,0,0,49,30a19.68,19.68,0,0,0,1.22,2.75,11.85,11.85,0,0,0-3.65,4.74c-.79,2.28-.18,3.31,1,3.55a3.5,3.5,0,0,0,1.83-.38,8.45,8.45,0,0,0,2.32-1.2c1.34-1,2.63-2.37,2.56-4.24a8.25,8.25,0,0,0-.58-2.51A13.21,13.21,0,0,1,60.32,32c6,.69,7.15,4.42,6.93,6a4,4,0,0,1-1.89,2.68c-.42.27-.56.36-.52.54s.25.27.61.22a4.68,4.68,0,0,0,3.24-4.16c.18-3.69-3.33-7.71-9.54-7.67Zm-46,15.59c-2,2.16-4.74,3-5.93,2.29s-.78-3.93,1.65-6.21a30.94,30.94,0,0,1,4.65-3.48L14.7,37l.14-.08h0l.3-.19a8.58,8.58,0,0,1-2,8.41Zm14.42-9.83c-.69,1.68-2.13,6-3,5.75s-1.22-3.46-.16-6.69a15.13,15.13,0,0,1,2.35-4.3C27.77,28.88,29,28.48,29.25,29c.37.64-1.31,5.31-1.73,6.36ZM39.43,41c-.29.15-.57.25-.69.18s.12-.25.12-.25,1.49-1.61,2.08-2.34c.34-.42.74-.93,1.17-1.49v.16c0,1.92-1.85,3.22-2.68,3.74Zm9.18-2.1c-.22-.15-.18-.65.53-2.22a8.34,8.34,0,0,1,2-2.64,3.76,3.76,0,0,1,.2,1.15,3.81,3.81,0,0,1-2.78,3.71Z"/></g></svg>